<?xml version="1.0" encoding="UTF-8" standalone="no"?>
<!-- Created with Inkscape (http://www.inkscape.org/) -->

<svg
   width="320"
   height="320"
   viewBox="0 0 84.666665 84.666666"
   version="1.1"
   id="svg1"
   xml:space="preserve"
   inkscape:version="1.1 (c68e22c387, 2021-05-23)"
   sodipodi:docname="green-transparent.svg"
   xmlns:inkscape="http://www.inkscape.org/namespaces/inkscape"
   xmlns:sodipodi="http://sodipodi.sourceforge.net/DTD/sodipodi-0.dtd"
   xmlns="http://www.w3.org/2000/svg"
   xmlns:svg="http://www.w3.org/2000/svg"><sodipodi:namedview
     id="namedview1"
     pagecolor="#505050"
     bordercolor="#eeeeee"
     borderopacity="1"
     inkscape:showpageshadow="0"
     inkscape:pageopacity="0"
     inkscape:pagecheckerboard="0"
     inkscape:deskcolor="#505050"
     inkscape:document-units="mm"
     showguides="true"
     inkscape:zoom="1.4142136"
     inkscape:cx="140.36069"
     inkscape:cy="154.14927"
     inkscape:window-width="1366"
     inkscape:window-height="715"
     inkscape:window-x="-8"
     inkscape:window-y="-8"
     inkscape:window-maximized="1"
     inkscape:current-layer="layer1"
     inkscape:pageshadow="0"
     showgrid="false"
     inkscape:snap-object-midpoints="true"
     inkscape:snap-global="true"
     inkscape:snap-center="true"
     inkscape:snap-others="true"
     inkscape:snap-nodes="false" /><defs
     id="defs1" /><g
     inkscape:label="Layer 1"
     inkscape:groupmode="layer"
     id="layer1"><rect
       style="display:none;fill:#ffffff;stroke-width:0.264583"
       id="rect1"
       width="84.666664"
       height="84.666664"
       x="-8.8817842e-16"
       y="0"
       inkscape:label="frame"
       inkscape:export-filename="favicon2.png"
       inkscape:export-xdpi="57.599998"
       inkscape:export-ydpi="57.599998"
       sodipodi:insensitive="true" /><path
       id="path40-1-9-7-2"
       style="fill:#388e3c;fill-opacity:1;stroke-width:0.228475"
       d="m 21.793579,16.933488 v 3.788132 c 0.381125,0.01072 0.804695,0.0051 1.241441,0.0069 0.21837,7.2e-4 0.439873,0.0035 0.661339,0.01115 0.221465,0.0069 0.442631,0.01916 0.659981,0.03885 0.21735,0.0197 0.430752,0.04705 0.63678,0.0848 0.206034,0.03774 0.40467,0.0861 0.59217,0.147708 0.09375,0.03083 0.184878,0.06476 0.272646,0.102637 0.08776,0.03791 0.172146,0.07971 0.253026,0.125393 0.08091,0.04569 0.158046,0.0953 0.23115,0.149486 0.07314,0.05415 0.142193,0.112845 0.206604,0.176261 0.112308,0.125403 0.208044,0.244554 0.288719,0.359229 0.08065,0.114677 0.146508,0.22468 0.198576,0.332001 0.05208,0.107318 0.09044,0.212169 0.116916,0.315491 0.02652,0.10333 0.04068,0.205207 0.04464,0.307908 0.0042,0.102703 -0.0024,0.20604 -0.0183,0.311472 -0.0156,0.105451 -0.04014,0.213324 -0.07228,0.324871 -0.0321,0.111539 -0.07167,0.226608 -0.117366,0.347621 -0.04566,0.121002 -0.09737,0.247686 -0.153504,0.381534 -0.112296,0.267684 -0.242784,0.56442 -0.378858,0.903636 -0.06805,0.169602 -0.137604,0.350094 -0.20706,0.542622 -0.06943,0.19254 -0.138756,0.396984 -0.206603,0.615815 -0.06788,0.218839 -0.134017,0.451663 -0.197238,0.700153 -0.06321,0.248495 -0.123385,0.512789 -0.178945,0.794309 -0.05556,0.281514 -0.106392,0.580374 -0.151278,0.898284 -0.04494,0.317904 -0.08393,0.654852 -0.115122,1.012518 -0.0267,0.265362 -0.0468,0.526745 -0.06071,0.783599 -0.0138,0.256848 -0.02143,0.509358 -0.02322,0.75771 -0.0018,0.248352 0.0018,0.492408 0.01158,0.732282 0.0095,0.239868 0.0246,0.475446 0.04464,0.706848 0.02004,0.231389 0.04524,0.458466 0.07495,0.681401 0.02982,0.222942 0.06435,0.441924 0.103092,0.656419 0.0387,0.2145 0.08161,0.424475 0.128514,0.63054 0.04686,0.206069 0.09782,0.407891 0.152166,0.605549 0.0543,0.197658 0.11217,0.391296 0.173148,0.58056 0.06096,0.189258 0.125022,0.37425 0.191874,0.55512 0.133703,0.361746 0.278094,0.706992 0.430625,1.035276 0.152527,0.328289 0.313213,0.639923 0.478369,0.934877 0.165162,0.294948 0.334884,0.573198 0.506483,0.834918 0.171594,0.261714 0.34491,0.506796 0.516744,0.735402 0.171834,0.228606 0.342396,0.44073 0.508272,0.636335 0.165876,0.195607 0.326874,0.374556 0.4806,0.537276 0.153714,0.162714 0.300168,0.309156 0.435528,0.439099 0.270732,0.259895 0.498504,0.454187 0.658656,0.583679 0.160157,0.129498 0.25257,0.194112 0.25257,0.194112 0,0 -0.09241,0.06459 -0.25257,0.194112 -0.160152,0.129498 -0.387924,0.32379 -0.658656,0.583692 -0.13536,0.129948 -0.281814,0.276378 -0.435528,0.439104 -0.153726,0.162708 -0.314724,0.341657 -0.4806,0.537264 -0.165876,0.195605 -0.336438,0.407729 -0.508272,0.636347 -0.171834,0.2286 -0.34515,0.473676 -0.516744,0.735402 -0.171599,0.261714 -0.341321,0.539964 -0.506483,0.834912 -0.165156,0.294947 -0.325842,0.606582 -0.478369,0.934871 -0.152531,0.328284 -0.296922,0.67353 -0.430625,1.035276 -0.06683,0.180877 -0.130914,0.365868 -0.191874,0.555126 -0.06096,0.189258 -0.11883,0.382902 -0.173148,0.580554 -0.0543,0.197658 -0.105276,0.39948 -0.152166,0.60555 -0.04692,0.20607 -0.08983,0.416039 -0.128514,0.630539 -0.03876,0.214501 -0.07331,0.433482 -0.103092,0.656419 -0.0297,0.222942 -0.0549,0.450017 -0.07495,0.681407 -0.02004,0.231402 -0.03516,0.46698 -0.04464,0.706848 -0.0098,0.239868 -0.01326,0.483924 -0.01158,0.732282 0.0018,0.248352 0.0094,0.500861 0.02322,0.757715 0.01392,0.256848 0.03402,0.518226 0.06071,0.783594 0.0312,0.357667 0.0702,0.694615 0.115122,1.012518 0.04488,0.317916 0.09575,0.616764 0.151278,0.898284 0.0555,0.28152 0.115734,0.545813 0.178945,0.79431 0.06321,0.24849 0.129365,0.481314 0.197238,0.700151 0.06788,0.218833 0.137183,0.42327 0.206603,0.61581 0.06944,0.192535 0.13902,0.37302 0.20706,0.542628 0.136074,0.339216 0.266562,0.635946 0.378858,0.903636 0.0561,0.133848 0.107826,0.260526 0.153504,0.38154 0.04566,0.121008 0.08524,0.236076 0.117366,0.347621 0.0321,0.11154 0.05664,0.219421 0.07228,0.324864 0.01572,0.105432 0.02262,0.20877 0.0183,0.311466 -0.0042,0.102703 -0.01812,0.204583 -0.04464,0.307908 -0.02652,0.103327 -0.06485,0.20817 -0.116916,0.315498 -0.05208,0.107316 -0.117924,0.217326 -0.198576,0.331998 -0.08065,0.114678 -0.176411,0.233827 -0.288719,0.359226 -0.06442,0.06343 -0.133471,0.122076 -0.206604,0.176268 -0.07315,0.05418 -0.150241,0.103812 -0.23115,0.149484 -0.08091,0.04566 -0.165264,0.08752 -0.253026,0.125394 -0.08777,0.03792 -0.178896,0.07181 -0.272646,0.102636 -0.1875,0.06164 -0.386136,0.10995 -0.59217,0.147708 -0.206028,0.03774 -0.41943,0.06512 -0.63678,0.08479 -0.21735,0.01968 -0.438516,0.0315 -0.659981,0.03882 -0.221466,0.0073 -0.442969,0.01032 -0.661339,0.01116 -0.436746,0.0018 -0.860316,-0.0036 -1.241441,0.0072 v 3.788129 h 26.065786 c 0.530639,-0.02604 1.034758,-0.0603 1.513204,-0.101748 0.478452,-0.04146 0.931245,-0.08999 1.360579,-0.145026 0.42935,-0.05502 0.83493,-0.116609 1.218242,-0.183407 0.383309,-0.06679 0.744447,-0.138786 1.084808,-0.215532 0.340349,-0.07674 0.659827,-0.157884 0.960308,-0.242755 0.300493,-0.08486 0.58194,-0.173442 0.84563,-0.264617 0.263692,-0.09118 0.509878,-0.185029 0.739861,-0.280686 0.229976,-0.09566 0.443698,-0.193068 0.643037,-0.291396 0.199345,-0.09833 0.384235,-0.197574 0.556015,-0.296748 0.171791,-0.09918 0.330608,-0.198552 0.477921,-0.296754 0.14731,-0.0982 0.283295,-0.195534 0.409206,-0.290946 0.125912,-0.09541 0.241806,-0.188994 0.349402,-0.279792 0.215183,-0.181602 0.396532,-0.352014 0.556913,-0.504252 0.160384,-0.152238 0.299959,-0.286152 0.430176,-0.394476 0.179053,-0.146675 0.352302,-0.30189 0.52031,-0.465431 0.167999,-0.163536 0.330679,-0.335287 0.487297,-0.514513 0.156621,-0.179231 0.307139,-0.366293 0.452039,-0.560034 0.144909,-0.193739 0.283936,-0.394451 0.416791,-0.601529 0.132852,-0.207078 0.259712,-0.420228 0.380193,-0.639462 0.12047,-0.219234 0.234511,-0.444497 0.34227,-0.674717 0.107767,-0.230215 0.20916,-0.465487 0.303891,-0.705505 0.09473,-0.240023 0.182828,-0.484523 0.264172,-0.733175 0.08134,-0.248652 0.155953,-0.501612 0.223565,-0.757716 0.0677,-0.256104 0.12844,-0.515412 0.182066,-0.777798 0.05362,-0.262373 0.100023,-0.527717 0.13923,-0.795198 0.0392,-0.267479 0.07141,-0.53718 0.09594,-0.80859 0.02453,-0.271397 0.0418,-0.544253 0.05129,-0.818399 0.0095,-0.274152 0.01227,-0.549378 0.006,-0.825102 -0.006,-0.275712 -0.01954,-0.552107 -0.04102,-0.828222 -0.0215,-0.276108 -0.0512,-0.551999 -0.08881,-0.827327 -0.03756,-0.275323 -0.08307,-0.549949 -0.136997,-0.823314 -0.05388,-0.273366 -0.115971,-0.545496 -0.186522,-0.815724 -0.07055,-0.270234 -0.149372,-0.538662 -0.23696,-0.804576 -0.08759,-0.265908 -0.183777,-0.529422 -0.288714,-0.78984 -0.104906,-0.260434 -0.218741,-0.517804 -0.341353,-0.771562 -0.122614,-0.253758 -0.254303,-0.503771 -0.394919,-0.749688 -0.140617,-0.24591 -0.289962,-0.487799 -0.448923,-0.724691 -0.158957,-0.236893 -0.327516,-0.46899 -0.505135,-0.695688 -0.17763,-0.226698 -0.364745,-0.447786 -0.561375,-0.663114 -0.196624,-0.215316 -0.40253,-0.424638 -0.618489,-0.627414 -0.215961,-0.20277 -0.441773,-0.399095 -0.677395,-0.588138 -0.235624,-0.189054 -0.481132,-0.37116 -0.736746,-0.545309 -0.255619,-0.174144 -0.521486,-0.340387 -0.797422,-0.498457 -0.275941,-0.158058 -0.561977,-0.307655 -0.858571,-0.448463 -0.296609,-0.140802 -0.603462,-0.272994 -0.921043,-0.395376 -0.317588,-0.122364 -0.645952,-0.235032 -0.984852,-0.3378 0.3389,-0.102762 0.667264,-0.215424 0.984852,-0.337806 0.317581,-0.12237 0.624434,-0.254556 0.921043,-0.395364 0.296594,-0.140802 0.58263,-0.290412 0.858571,-0.44847 0.275936,-0.158064 0.541803,-0.324306 0.797422,-0.498455 0.255614,-0.174139 0.501122,-0.356256 0.736746,-0.545304 0.235622,-0.189048 0.461434,-0.385375 0.677395,-0.588144 0.215959,-0.202776 0.421865,-0.412092 0.618489,-0.627414 0.19663,-0.215316 0.383745,-0.436416 0.561375,-0.663114 0.177619,-0.226692 0.346178,-0.458789 0.505135,-0.695687 0.158961,-0.236893 0.308306,-0.478776 0.448923,-0.724693 0.140616,-0.245915 0.272305,-0.495923 0.394919,-0.749681 0.122612,-0.253764 0.236447,-0.511128 0.341376,-0.771552 0.104937,-0.260424 0.201124,-0.523938 0.288714,-0.78984 0.08759,-0.265914 0.166383,-0.534353 0.236959,-0.804576 0.07055,-0.270234 0.132629,-0.542363 0.186523,-0.815724 0.05388,-0.273365 0.09945,-0.547997 0.136997,-0.823313 0.03756,-0.275328 0.06726,-0.55122 0.08881,-0.82734 0.0215,-0.276102 0.03524,-0.552498 0.04102,-0.828215 0.006,-0.275719 0.0035,-0.550951 -0.006,-0.825103 -0.0095,-0.274139 -0.02677,-0.547001 -0.05129,-0.818393 -0.02452,-0.27141 -0.05673,-0.541116 -0.09594,-0.808596 -0.03923,-0.267474 -0.0856,-0.532818 -0.139253,-0.795192 -0.05363,-0.262386 -0.114405,-0.521699 -0.182066,-0.77781 -0.06762,-0.256085 -0.142205,-0.509045 -0.223565,-0.757697 -0.08134,-0.248659 -0.169445,-0.493158 -0.264172,-0.73317 -0.09473,-0.24003 -0.196124,-0.475296 -0.303891,-0.70551 -0.107759,-0.23022 -0.2218,-0.455477 -0.34227,-0.674723 -0.120481,-0.219229 -0.247341,-0.432384 -0.380193,-0.639456 -0.132855,-0.207076 -0.271882,-0.407792 -0.416791,-0.601537 -0.1449,-0.19374 -0.295418,-0.380799 -0.452039,-0.560032 -0.156618,-0.179223 -0.319298,-0.350971 -0.487297,-0.514516 -0.168008,-0.163534 -0.341257,-0.318752 -0.52031,-0.465422 -0.130217,-0.108322 -0.269792,-0.242237 -0.430176,-0.394477 -0.160381,-0.152241 -0.34173,-0.322651 -0.556913,-0.504257 -0.107596,-0.0908 -0.22349,-0.184382 -0.349402,-0.279792 -0.125911,-0.09541 -0.261896,-0.192738 -0.409206,-0.290949 -0.147313,-0.0982 -0.30613,-0.197574 -0.477921,-0.296749 -0.17178,-0.09917 -0.35667,-0.198425 -0.556015,-0.296745 -0.199339,-0.09833 -0.413061,-0.195735 -0.643037,-0.291395 -0.229983,-0.09566 -0.476169,-0.189511 -0.739861,-0.280683 -0.26369,-0.09119 -0.545137,-0.179765 -0.84563,-0.264638 -0.300481,-0.08488 -0.619959,-0.166007 -0.960308,-0.242757 -0.340361,-0.07677 -0.701499,-0.148736 -1.084808,-0.215529 -0.383312,-0.06683 -0.788892,-0.128371 -1.218242,-0.183402 -0.429334,-0.05501 -0.882127,-0.103582 -1.360579,-0.145032 -0.478446,-0.04144 -0.982565,-0.07573 -1.513204,-0.101739 z m 15.299354,3.788132 9.305439,0.03566 -10.554477,16.980779 c -0.154164,-0.175327 -0.308166,-0.375757 -0.459618,-0.598411 -0.151452,-0.222647 -0.300264,-0.467466 -0.444906,-0.732275 -0.144641,-0.26481 -0.284838,-0.549613 -0.418572,-0.85143 -0.133722,-0.301812 -0.261035,-0.620844 -0.379752,-0.95451 -0.118721,-0.33366 -0.228827,-0.682056 -0.328433,-1.042416 -0.09962,-0.360348 -0.188659,-0.73281 -0.265056,-1.114704 -0.07643,-0.381893 -0.140556,-0.773105 -0.189661,-1.171379 -0.02454,-0.19914 -0.04506,-0.400164 -0.06199,-0.602423 -0.01692,-0.202272 -0.02994,-0.405715 -0.03888,-0.610464 -0.0089,-0.204745 -0.01368,-0.410556 -0.0138,-0.617142 -2.34e-4,-0.206592 0.0042,-0.413832 0.01296,-0.621612 0.0089,-0.207792 0.0225,-0.416406 0.04104,-0.624738 0.01854,-0.208344 0.04188,-0.416496 0.07055,-0.624738 0.02868,-0.208248 0.06278,-0.41634 0.102191,-0.623844 0.03936,-0.20751 0.08419,-0.4146 0.13476,-0.620723 0.05052,-0.206118 0.106884,-0.411264 0.169128,-0.615366 0.06226,-0.204096 0.13038,-0.407239 0.204822,-0.60867 0.07444,-0.20142 0.155142,-0.40119 0.24231,-0.599298 0.08716,-0.198114 0.180732,-0.394446 0.281124,-0.588594 0.100398,-0.194148 0.207606,-0.386105 0.321744,-0.575651 0.114132,-0.189546 0.235289,-0.376627 0.363684,-0.560925 0.128388,-0.184294 0.263808,-0.366006 0.406974,-0.544408 0.143154,-0.178405 0.294048,-0.353364 0.452484,-0.525224 0.158442,-0.171869 0.324672,-0.340465 0.498905,-0.505148 0.174229,-0.164682 0.356562,-0.325532 0.547086,-0.482384 z m 16.010652,2.602022 c 0,0 0.07599,0.0513 0.20348,0.15753 0.06373,0.0531 0.140119,0.119796 0.226693,0.200802 0.08659,0.081 0.183122,0.176238 0.286486,0.286044 0.103374,0.109806 0.213872,0.234457 0.327985,0.37395 0.114109,0.139494 0.231934,0.294006 0.350751,0.464088 0.118819,0.170076 0.238616,0.355794 0.356099,0.557352 0.117482,0.201564 0.232592,0.41892 0.342707,0.652854 0.110109,0.233927 0.215225,0.484265 0.311923,0.751469 0.09671,0.267199 0.18513,0.551395 0.262392,0.852768 0.0386,0.150679 0.07444,0.305586 0.107099,0.464976 0.03264,0.159396 0.062,0.323094 0.08791,0.49131 0.02591,0.168216 0.04809,0.340938 0.06649,0.518082 0.01839,0.17715 0.03316,0.358674 0.04326,0.54486 0.01011,0.186191 0.01579,0.377178 0.01693,0.572525 7.8e-4,0.195349 -0.0026,0.395137 -0.01114,0.599749 -0.0087,0.204612 -0.02227,0.413873 -0.04153,0.627863 -0.01916,0.21399 -0.04404,0.432936 -0.07452,0.656418 -0.03049,0.223488 -0.06684,0.451446 -0.109335,0.684533 -0.04248,0.233083 -0.09109,0.47118 -0.14637,0.713982 -0.05527,0.242808 -0.117255,0.490363 -0.18608,0.742992 -0.06882,0.25263 -0.144461,0.510318 -0.227582,0.77289 -0.074,0.184032 -0.15111,0.362214 -0.2316,0.535044 -0.08048,0.172824 -0.1643,0.34011 -0.251237,0.50202 -0.08692,0.16191 -0.177072,0.318623 -0.270418,0.469883 -0.09336,0.151279 -0.189845,0.297301 -0.289609,0.43821 -0.09977,0.140916 -0.203086,0.276588 -0.309246,0.407418 -0.106174,0.130842 -0.215437,0.25692 -0.327986,0.37797 -0.112553,0.12105 -0.228251,0.236976 -0.347173,0.34851 -0.118917,0.11154 -0.241088,0.218544 -0.366371,0.32085 -0.125268,0.1023 -0.253469,0.200262 -0.385096,0.293628 -0.131621,0.09337 -0.266796,0.182142 -0.404745,0.266844 -0.137956,0.08471 -0.278753,0.165102 -0.423033,0.241416 -0.144271,0.07634 -0.291651,0.14865 -0.442221,0.216876 -0.150571,0.06822 -0.30456,0.132372 -0.461416,0.192774 -0.156868,0.06045 -0.316569,0.11715 -0.479705,0.170021 -0.163151,0.05286 -0.329499,0.102079 -0.498899,0.147709 -0.169399,0.0456 -0.342,0.08762 -0.517639,0.126281 -0.369867,0.05646 -0.752392,0.10419 -1.138356,0.144577 -0.38597,0.04044 -0.775526,0.07357 -1.159784,0.100409 -0.384252,0.02688 -0.762912,0.04752 -1.127652,0.06339 -0.364739,0.0159 -0.715445,0.02688 -1.04286,0.03438 -0.654834,0.01512 -1.217177,0.0162 -1.615835,0.01338 -0.398646,-0.0024 -0.633666,-0.0094 -0.633666,-0.0094 z m -9.897164,20.921082 c 0.398652,-0.0024 0.961002,-0.0018 1.615829,0.01338 0.327415,0.0078 0.67812,0.01848 1.042866,0.03438 0.36474,0.0159 0.743394,0.03654 1.127646,0.06339 0.384264,0.02688 0.77382,0.06001 1.159787,0.10041 0.385965,0.04044 0.768491,0.08807 1.138356,0.144582 0.17564,0.0387 0.348241,0.08065 0.51764,0.126282 0.169401,0.0456 0.335749,0.09483 0.498898,0.147708 0.163136,0.05286 0.322838,0.109608 0.479706,0.170016 0.15686,0.06045 0.310844,0.124548 0.461414,0.19278 0.150574,0.06822 0.297952,0.140555 0.442223,0.21687 0.144279,0.07634 0.285076,0.156713 0.423035,0.241415 0.137948,0.08471 0.273122,0.173484 0.404744,0.26685 0.131625,0.09337 0.259826,0.191316 0.385095,0.293628 0.125283,0.102307 0.247452,0.20931 0.36637,0.320844 0.118927,0.11154 0.23462,0.227466 0.347172,0.348516 0.112551,0.121044 0.221813,0.247128 0.327988,0.377964 0.106159,0.130842 0.209472,0.266508 0.309243,0.407424 0.09977,0.140904 0.196255,0.286932 0.28961,0.438204 0.09335,0.151266 0.183501,0.30798 0.270421,0.46989 0.08693,0.16191 0.170757,0.32919 0.251236,0.502019 0.08048,0.17283 0.157593,0.351012 0.231599,0.535045 0.08316,0.262571 0.158759,0.520259 0.227583,0.772889 0.06882,0.25263 0.130816,0.500184 0.186083,0.742986 0.05527,0.242808 0.103881,0.480894 0.146367,0.713982 0.04248,0.233088 0.07885,0.461052 0.10933,0.684534 0.03048,0.223488 0.05536,0.442427 0.07453,0.656423 0.01929,0.21399 0.0329,0.423246 0.04153,0.627858 0.0087,0.204612 0.01201,0.4044 0.01115,0.599748 -7.2e-4,0.195342 -0.0069,0.386334 -0.01693,0.572526 -0.01011,0.186186 -0.02487,0.367716 -0.04326,0.544859 -0.01836,0.177145 -0.04058,0.349866 -0.0665,0.518082 -0.02591,0.168217 -0.05527,0.33192 -0.0879,0.49131 -0.03264,0.15939 -0.06848,0.314299 -0.107098,0.464988 -0.07729,0.301362 -0.165685,0.585564 -0.262392,0.852762 -0.0967,0.267204 -0.201815,0.517536 -0.311923,0.751463 -0.110115,0.233941 -0.225222,0.451297 -0.342705,0.652854 -0.117484,0.201565 -0.237282,0.387276 -0.356102,0.557353 -0.118815,0.170082 -0.23664,0.324593 -0.350749,0.464094 -0.114115,0.139493 -0.224612,0.264137 -0.327985,0.373943 -0.103364,0.109812 -0.1999,0.205026 -0.286487,0.286044 -0.08658,0.08102 -0.162961,0.147696 -0.226692,0.200808 -0.127489,0.10623 -0.20348,0.157524 -0.20348,0.157524 L 42.572761,44.254132 c 0,0 0.23502,-0.007 0.633666,-0.0094 z m -7.362526,2.684142 10.554477,16.980775 -9.305439,0.0357 c -0.19053,-0.156852 -0.372864,-0.3177 -0.547092,-0.482382 -0.174234,-0.164682 -0.340464,-0.333282 -0.498906,-0.505146 -0.158436,-0.171863 -0.30933,-0.346824 -0.452484,-0.525227 -0.143166,-0.178398 -0.278586,-0.360115 -0.406974,-0.54441 C 35.059089,61.70388 34.937931,61.5168 34.823799,61.327248 34.709655,61.137702 34.602453,60.94575 34.502056,60.751602 34.401663,60.557454 34.308088,60.361122 34.220925,60.163008 34.133765,59.9649 34.053057,59.765136 33.978622,59.56371 c -0.07444,-0.201426 -0.14256,-0.404574 -0.204822,-0.608676 -0.06226,-0.204096 -0.118615,-0.409241 -0.169135,-0.61536 -0.05058,-0.206123 -0.09538,-0.413219 -0.134759,-0.620723 -0.03936,-0.207504 -0.07349,-0.415596 -0.102192,-0.623844 -0.02868,-0.208242 -0.05202,-0.416394 -0.07055,-0.624732 -0.01854,-0.208338 -0.03209,-0.416952 -0.04104,-0.624738 -0.0086,-0.207786 -0.0132,-0.415026 -0.01296,-0.621612 1.74e-4,-0.206592 0.0054,-0.412403 0.0138,-0.617153 0.0089,-0.20475 0.02196,-0.408187 0.03888,-0.610452 0.01692,-0.202272 0.03744,-0.40329 0.062,-0.60243 0.04914,-0.398274 0.113232,-0.789485 0.18966,-1.171379 0.07642,-0.381894 0.165438,-0.754351 0.265056,-1.114704 0.09961,-0.36036 0.209712,-0.708756 0.328434,-1.042422 0.118722,-0.33366 0.246029,-0.652692 0.379758,-0.954509 0.133734,-0.301812 0.273924,-0.586614 0.418565,-0.851425 0.144643,-0.264809 0.293454,-0.509633 0.444907,-0.732282 0.151457,-0.222647 0.305453,-0.423071 0.459623,-0.598403 z"
       inkscape:label="final" /></g></svg>
