<?xml version="1.0" encoding="UTF-8" standalone="no"?>
<!-- Created with Inkscape (http://www.inkscape.org/) -->

<svg
   width="320"
   height="320"
   viewBox="0 0 84.666665 84.666666"
   version="1.1"
   id="svg1"
   xml:space="preserve"
   inkscape:version="1.1 (c68e22c387, 2021-05-23)"
   sodipodi:docname="white-green.svg"
   xmlns:inkscape="http://www.inkscape.org/namespaces/inkscape"
   xmlns:sodipodi="http://sodipodi.sourceforge.net/DTD/sodipodi-0.dtd"
   xmlns="http://www.w3.org/2000/svg"
   xmlns:svg="http://www.w3.org/2000/svg"><sodipodi:namedview
     id="namedview1"
     pagecolor="#505050"
     bordercolor="#eeeeee"
     borderopacity="1"
     inkscape:showpageshadow="0"
     inkscape:pageopacity="0"
     inkscape:pagecheckerboard="0"
     inkscape:deskcolor="#505050"
     inkscape:document-units="mm"
     showguides="true"
     inkscape:zoom="1"
     inkscape:cx="143.5"
     inkscape:cy="179"
     inkscape:window-width="1366"
     inkscape:window-height="715"
     inkscape:window-x="-8"
     inkscape:window-y="-8"
     inkscape:window-maximized="1"
     inkscape:current-layer="layer1"
     inkscape:pageshadow="0"
     showgrid="false"
     inkscape:snap-object-midpoints="true"
     inkscape:snap-global="true"
     inkscape:snap-center="true"
     inkscape:snap-others="true"
     inkscape:snap-nodes="false" /><defs
     id="defs1" /><g
     inkscape:label="Layer 1"
     inkscape:groupmode="layer"
     id="layer1"><rect
       style="display:inline;fill:#388e3c;fill-opacity:1;stroke-width:0.264583"
       id="rect1"
       width="84.666664"
       height="84.666664"
       x="-8.8817842e-16"
       y="0"
       inkscape:label="frame"
       inkscape:export-filename="favicon2.png"
       inkscape:export-xdpi="57.599998"
       inkscape:export-ydpi="57.599998" /><path
       id="path40-1-9-7-2"
       style="fill:#ffffff;fill-opacity:1;stroke-width:0.228474"
       d="m 21.793617,16.933584 v 3.788125 c 0.381125,0.01072 0.804694,0.0051 1.241438,0.0069 0.218371,7.18e-4 0.439872,0.0035 0.661338,0.01115 0.221465,0.0069 0.44263,0.01916 0.659981,0.03886 0.217349,0.0197 0.43075,0.04705 0.636778,0.0848 0.206033,0.03775 0.404669,0.0861 0.592169,0.147708 0.09375,0.03083 0.184877,0.06476 0.272645,0.102636 0.08777,0.03791 0.172146,0.0797 0.253025,0.125393 0.0809,0.04568 0.158046,0.0953 0.231151,0.149486 0.07313,0.05415 0.142192,0.112844 0.206604,0.176261 0.112306,0.125403 0.208041,0.244553 0.288717,0.359227 0.08066,0.114678 0.146508,0.22468 0.198577,0.332 0.05207,0.10732 0.09043,0.21217 0.116914,0.315491 0.02652,0.10333 0.04068,0.205208 0.04463,0.307907 0.0042,0.102704 -0.0024,0.20604 -0.0183,0.311472 -0.0156,0.105451 -0.04015,0.213325 -0.07228,0.324871 -0.0321,0.111539 -0.07167,0.226607 -0.117366,0.347621 -0.04566,0.121001 -0.09737,0.247685 -0.153503,0.381532 -0.112297,0.267685 -0.242784,0.564419 -0.378858,0.903634 -0.06805,0.169603 -0.137603,0.350094 -0.207059,0.542621 -0.06943,0.192539 -0.138756,0.396984 -0.206604,0.615815 -0.06788,0.218838 -0.134017,0.451662 -0.197237,0.700151 -0.06321,0.248494 -0.123384,0.512788 -0.178944,0.794307 -0.05556,0.281515 -0.106392,0.580374 -0.151277,0.898283 -0.04494,0.317904 -0.08393,0.65485 -0.115123,1.012516 -0.0267,0.265361 -0.0468,0.526744 -0.0607,0.783598 -0.01381,0.256848 -0.02143,0.509357 -0.02322,0.757709 -0.0018,0.248351 0.0018,0.492406 0.01158,0.73228 0.0095,0.239867 0.0246,0.475445 0.04464,0.706847 0.02004,0.231389 0.04524,0.458465 0.07495,0.6814 0.02982,0.222941 0.06435,0.441922 0.103092,0.656417 0.0387,0.214499 0.08161,0.424474 0.128514,0.630538 0.04686,0.20607 0.09783,0.407892 0.152166,0.605549 0.05429,0.197658 0.11217,0.391294 0.173146,0.580559 0.06096,0.189257 0.125022,0.374249 0.191874,0.555118 0.133704,0.361746 0.278094,0.706991 0.430626,1.035274 0.152526,0.328289 0.313211,0.639922 0.478367,0.934876 0.165162,0.294948 0.334883,0.573196 0.506482,0.834916 0.171594,0.261714 0.34491,0.506795 0.516744,0.735401 0.171833,0.228605 0.342394,0.440729 0.50827,0.636334 0.165876,0.195606 0.326873,0.374555 0.480599,0.537275 0.153714,0.162713 0.300169,0.309156 0.435528,0.439097 0.270731,0.259895 0.498502,0.454187 0.658653,0.583679 0.160158,0.129498 0.252571,0.194112 0.252571,0.194112 0,0 -0.09241,0.06458 -0.252571,0.194112 -0.160151,0.129496 -0.387922,0.323787 -0.658653,0.58369 -0.135359,0.129949 -0.281814,0.276378 -0.435528,0.439103 -0.153726,0.162708 -0.314723,0.341657 -0.480599,0.537263 -0.165876,0.195605 -0.336437,0.407729 -0.50827,0.636346 -0.171834,0.2286 -0.34515,0.473675 -0.516744,0.7354 -0.171599,0.261714 -0.34132,0.539964 -0.506482,0.834912 -0.165156,0.294946 -0.325841,0.60658 -0.478367,0.934869 -0.152532,0.328284 -0.296922,0.673529 -0.430626,1.035273 -0.06683,0.180876 -0.130913,0.365869 -0.191874,0.555126 -0.06096,0.189258 -0.118829,0.3829 -0.173146,0.580553 -0.0543,0.197657 -0.105277,0.399479 -0.152166,0.605549 -0.04692,0.206068 -0.08983,0.416038 -0.128514,0.630537 -0.03876,0.2145 -0.07331,0.433481 -0.103092,0.656417 -0.0297,0.222942 -0.0549,0.450017 -0.07495,0.681407 -0.02004,0.231401 -0.03515,0.466978 -0.04464,0.706847 -0.0098,0.239867 -0.01326,0.483922 -0.01158,0.73228 0.0018,0.248351 0.0094,0.50086 0.02322,0.757714 0.01392,0.256847 0.03402,0.518224 0.0607,0.783592 0.03119,0.357667 0.07021,0.694613 0.115123,1.012516 0.04488,0.317916 0.09575,0.616764 0.151277,0.898282 0.0555,0.281519 0.115734,0.545812 0.178944,0.794309 0.06321,0.248489 0.129365,0.481312 0.197237,0.70015 0.06787,0.218832 0.137184,0.423268 0.206604,0.615808 0.06944,0.192535 0.13902,0.373021 0.207059,0.542628 0.136074,0.339215 0.266561,0.635944 0.378858,0.903633 0.0561,0.133848 0.107826,0.260526 0.153503,0.381539 0.04566,0.121008 0.08524,0.236077 0.117366,0.347622 0.03209,0.111539 0.05664,0.219419 0.07228,0.324863 0.01572,0.105433 0.02262,0.20877 0.0183,0.311464 -0.0042,0.102704 -0.01812,0.204583 -0.04463,0.307909 -0.02652,0.103326 -0.06485,0.20817 -0.116914,0.315497 -0.05207,0.107316 -0.117925,0.217325 -0.198577,0.331997 -0.08066,0.114679 -0.176411,0.233826 -0.288717,0.359225 -0.06442,0.06343 -0.133472,0.122077 -0.206604,0.176268 -0.07314,0.05418 -0.150241,0.103812 -0.231151,0.149485 -0.08091,0.04566 -0.165263,0.08751 -0.253025,0.125393 -0.08776,0.03791 -0.178896,0.07181 -0.272645,0.102635 -0.1875,0.06165 -0.386136,0.109951 -0.592169,0.147708 -0.206028,0.03773 -0.419429,0.06512 -0.636778,0.08478 -0.217351,0.01968 -0.438516,0.03151 -0.659981,0.03882 -0.221466,0.0073 -0.442967,0.01031 -0.661338,0.01116 -0.436744,0.0018 -0.860313,-0.0036 -1.241438,0.0072 v 3.788121 h 26.065737 c 0.530637,-0.02604 1.034756,-0.06031 1.513201,-0.101747 0.478451,-0.04146 0.931243,-0.09 1.360578,-0.145026 0.429347,-0.05501 0.834927,-0.116609 1.218238,-0.183407 0.383309,-0.0668 0.744446,-0.138786 1.084806,-0.215531 0.340349,-0.07674 0.659825,-0.157884 0.960306,-0.242755 0.300493,-0.08486 0.58194,-0.173441 0.845629,-0.264616 0.263691,-0.09118 0.509877,-0.185029 0.73986,-0.280686 0.229975,-0.09567 0.443696,-0.193068 0.643035,-0.291395 0.199344,-0.09833 0.384234,-0.197575 0.556013,-0.296748 0.171792,-0.09918 0.330609,-0.198551 0.477921,-0.296753 0.14731,-0.0982 0.283296,-0.195533 0.409206,-0.290945 0.125911,-0.09541 0.241806,-0.188994 0.3494,-0.279792 0.215183,-0.181601 0.396532,-0.352013 0.556913,-0.504251 0.160384,-0.152237 0.299958,-0.286151 0.430174,-0.394475 0.179054,-0.146675 0.352303,-0.301889 0.52031,-0.46543 0.167999,-0.163536 0.330679,-0.335287 0.487296,-0.514512 0.156621,-0.179231 0.307139,-0.366292 0.452039,-0.560032 0.144909,-0.19374 0.283935,-0.394452 0.416789,-0.601529 0.132852,-0.207078 0.259712,-0.420228 0.380192,-0.639461 0.12047,-0.219234 0.234511,-0.444496 0.34227,-0.674716 0.107768,-0.230215 0.20916,-0.465486 0.30389,-0.705503 0.09473,-0.240023 0.182829,-0.484522 0.264172,-0.733175 0.08134,-0.248651 0.155953,-0.50161 0.223565,-0.757714 0.0677,-0.256103 0.128439,-0.51541 0.182065,-0.777796 0.05363,-0.262373 0.100024,-0.527717 0.13923,-0.795196 0.0392,-0.26748 0.0714,-0.53718 0.09595,-0.808589 0.02453,-0.271397 0.04179,-0.544253 0.05128,-0.818398 0.0095,-0.274151 0.01227,-0.549377 0.006,-0.8251 -0.006,-0.275712 -0.01954,-0.552107 -0.04102,-0.828221 -0.02149,-0.276107 -0.0512,-0.551998 -0.08881,-0.827325 -0.03756,-0.275322 -0.08307,-0.549947 -0.136996,-0.823312 -0.05387,-0.273414 -0.115959,-0.545544 -0.186511,-0.815771 -0.07056,-0.270231 -0.149381,-0.538659 -0.236968,-0.804573 -0.08759,-0.265907 -0.183777,-0.529421 -0.288714,-0.789838 -0.104904,-0.260434 -0.218741,-0.517804 -0.341351,-0.771561 -0.122614,-0.253758 -0.254303,-0.50377 -0.394919,-0.749687 -0.140617,-0.24591 -0.289961,-0.487798 -0.448923,-0.72469 -0.158956,-0.236892 -0.327514,-0.468989 -0.505133,-0.695686 -0.177629,-0.226698 -0.364744,-0.447786 -0.561374,-0.663113 -0.196624,-0.215316 -0.402529,-0.424637 -0.618488,-0.627412 -0.21596,-0.202771 -0.441771,-0.399096 -0.677394,-0.588139 -0.235623,-0.189052 -0.48113,-0.371158 -0.736745,-0.545307 -0.255618,-0.174145 -0.521485,-0.340386 -0.797421,-0.498455 -0.27594,-0.158058 -0.561976,-0.307655 -0.858568,-0.448463 -0.296609,-0.140802 -0.603461,-0.272994 -0.921042,-0.395375 -0.317587,-0.122364 -0.64595,-0.235031 -0.984849,-0.337799 0.338899,-0.102763 0.667262,-0.215424 0.984849,-0.337806 0.317581,-0.122369 0.624433,-0.254555 0.921042,-0.395363 0.296592,-0.140801 0.582628,-0.290411 0.858568,-0.448469 0.275936,-0.158063 0.541803,-0.324305 0.797421,-0.498455 0.255615,-0.174138 0.501122,-0.356255 0.736745,-0.545302 0.235623,-0.189048 0.461434,-0.385375 0.677394,-0.588144 0.215959,-0.202775 0.421864,-0.412091 0.618488,-0.627411 0.19663,-0.215316 0.383745,-0.436417 0.561374,-0.663113 0.177619,-0.226693 0.346177,-0.458789 0.505133,-0.695688 0.158962,-0.236891 0.308306,-0.478773 0.448923,-0.724689 0.140616,-0.245915 0.272305,-0.495923 0.394919,-0.749681 0.12261,-0.253763 0.236447,-0.511127 0.341375,-0.77155 0.104936,-0.260423 0.201124,-0.523937 0.288712,-0.789838 0.08759,-0.265915 0.166384,-0.534353 0.23696,-0.804575 0.07055,-0.270233 0.132628,-0.542363 0.186522,-0.815723 0.05388,-0.273365 0.09945,-0.547996 0.136997,-0.823311 0.03756,-0.275328 0.06727,-0.551218 0.0888,-0.827339 0.0215,-0.276101 0.03523,-0.552497 0.04102,-0.828214 0.006,-0.275717 0.0035,-0.550949 -0.006,-0.8251 -0.0095,-0.274139 -0.02677,-0.547001 -0.05128,-0.818392 -0.02452,-0.27141 -0.05674,-0.541115 -0.09595,-0.808594 -0.03923,-0.267473 -0.0856,-0.532818 -0.139253,-0.795191 -0.05363,-0.262385 -0.114405,-0.521698 -0.182064,-0.777809 -0.06761,-0.256085 -0.142206,-0.509044 -0.223566,-0.757696 -0.08135,-0.248657 -0.169444,-0.493156 -0.264172,-0.733168 -0.09473,-0.240028 -0.196122,-0.475295 -0.30389,-0.705509 -0.107759,-0.230218 -0.2218,-0.455476 -0.342268,-0.674721 -0.120482,-0.219228 -0.247341,-0.432384 -0.380194,-0.639455 -0.132854,-0.207124 -0.27188,-0.40784 -0.416789,-0.601585 -0.1449,-0.193739 -0.295418,-0.380798 -0.452039,-0.560031 -0.156617,-0.179222 -0.319297,-0.35097 -0.487296,-0.514515 -0.168007,-0.163534 -0.341256,-0.318752 -0.520309,-0.465421 -0.130217,-0.108321 -0.269791,-0.242236 -0.430175,-0.394476 -0.160381,-0.152241 -0.34173,-0.32265 -0.556913,-0.504256 -0.107594,-0.0908 -0.223489,-0.184383 -0.3494,-0.279792 -0.12591,-0.09541 -0.261896,-0.192737 -0.409206,-0.290948 -0.147312,-0.0982 -0.306129,-0.197573 -0.477921,-0.29675 -0.171779,-0.09917 -0.356669,-0.198424 -0.556013,-0.296744 -0.199339,-0.09833 -0.41306,-0.195734 -0.643035,-0.291394 -0.229983,-0.09566 -0.476168,-0.189511 -0.73986,-0.280682 -0.263689,-0.0912 -0.545136,-0.179765 -0.845629,-0.264637 -0.300481,-0.08488 -0.619957,-0.166007 -0.960306,-0.242758 -0.34036,-0.07677 -0.701497,-0.148734 -1.084806,-0.215528 -0.383311,-0.06683 -0.788891,-0.12837 -1.218238,-0.183401 -0.429335,-0.055 -0.882126,-0.103582 -1.360578,-0.145032 -0.478445,-0.04145 -0.982564,-0.07573 -1.513201,-0.101739 z m 15.299325,3.788125 9.305421,0.03566 -10.554456,16.980746 C 35.689743,37.562789 35.535741,37.36236 35.38429,37.139706 35.232838,36.917059 35.084026,36.67224 34.939384,36.407432 c -0.144641,-0.26481 -0.284838,-0.549612 -0.418571,-0.851428 -0.133721,-0.301812 -0.261035,-0.620843 -0.37975,-0.954509 -0.118722,-0.333659 -0.228828,-0.682054 -0.328435,-1.042413 -0.09962,-0.360348 -0.188657,-0.732809 -0.265055,-1.114702 -0.07643,-0.381893 -0.140555,-0.773104 -0.18966,-1.171377 -0.02453,-0.199139 -0.04506,-0.400164 -0.06199,-0.602423 -0.01691,-0.202271 -0.02994,-0.405713 -0.03888,-0.610462 -0.0089,-0.204745 -0.01368,-0.410555 -0.0138,-0.617141 -2.35e-4,-0.206591 0.0042,-0.413831 0.01295,-0.621611 0.0089,-0.207791 0.02249,-0.416405 0.04104,-0.624736 0.01853,-0.208344 0.04188,-0.416495 0.07055,-0.624738 0.02868,-0.208247 0.06278,-0.416339 0.102192,-0.623842 0.03936,-0.207509 0.08419,-0.414599 0.134759,-0.620722 0.05051,-0.206118 0.106884,-0.411263 0.169127,-0.615364 0.06226,-0.204096 0.13038,-0.407238 0.204823,-0.60867 0.07444,-0.201418 0.15514,-0.401188 0.24231,-0.599297 0.08716,-0.198113 0.18073,-0.394444 0.281122,-0.588592 0.100398,-0.194148 0.207606,-0.386104 0.321744,-0.575651 0.114131,-0.189545 0.235288,-0.376626 0.363683,-0.560923 0.128387,-0.184294 0.263808,-0.366006 0.406974,-0.544407 0.143152,-0.178404 0.294046,-0.353364 0.452482,-0.525223 0.158442,-0.171869 0.324671,-0.340464 0.498905,-0.505148 0.174228,-0.164681 0.356561,-0.325531 0.547084,-0.482381 z m 16.010622,2.602016 c 0,0 0.07599,0.0513 0.20348,0.157531 0.06372,0.05309 0.140119,0.119795 0.226693,0.200801 0.08658,0.081 0.183122,0.176237 0.286485,0.286043 0.103373,0.109807 0.213871,0.234457 0.327986,0.37395 0.114107,0.139493 0.231932,0.294005 0.350749,0.464086 0.118818,0.170076 0.238615,0.355795 0.356098,0.557351 0.117482,0.201564 0.232592,0.418919 0.342707,0.652853 0.110108,0.233927 0.215224,0.484265 0.311921,0.751468 0.09671,0.267199 0.18513,0.551393 0.262392,0.852766 0.0386,0.150679 0.07444,0.305586 0.107099,0.464975 0.03264,0.159395 0.062,0.323094 0.08791,0.491309 0.02591,0.168216 0.04809,0.340938 0.06649,0.518081 0.01839,0.17715 0.03316,0.358674 0.04326,0.544859 0.01011,0.186191 0.01579,0.377177 0.01694,0.572525 7.92e-4,0.195348 -0.0027,0.395135 -0.01114,0.599747 -0.0087,0.204611 -0.02228,0.413872 -0.04153,0.627862 -0.01917,0.21399 -0.04403,0.432936 -0.07452,0.656416 -0.03049,0.223489 -0.06684,0.451446 -0.109334,0.684533 -0.04247,0.233082 -0.09109,0.471179 -0.146369,0.71398 -0.05526,0.242808 -0.117255,0.490362 -0.186079,0.742991 -0.06882,0.252628 -0.144462,0.510318 -0.227584,0.772889 -0.07399,0.184031 -0.151109,0.362213 -0.231599,0.535042 -0.08049,0.172824 -0.1643,0.340109 -0.251236,0.502019 -0.08692,0.16191 -0.177071,0.318623 -0.270417,0.469883 -0.09336,0.151278 -0.189846,0.2973 -0.289609,0.438209 -0.09977,0.140916 -0.203085,0.276587 -0.309246,0.407418 -0.106174,0.130841 -0.215435,0.256918 -0.327984,0.377968 -0.112555,0.121051 -0.22825,0.236976 -0.347173,0.34851 -0.118917,0.11154 -0.241088,0.218543 -0.36637,0.320849 -0.125269,0.1023 -0.253469,0.200261 -0.385095,0.293628 -0.131622,0.09336 -0.266796,0.182141 -0.404744,0.266844 -0.137957,0.08471 -0.278753,0.1651 -0.423033,0.241414 -0.144271,0.07633 -0.291651,0.14865 -0.44222,0.216876 -0.150572,0.06822 -0.304559,0.132372 -0.461415,0.192773 -0.156868,0.06045 -0.31657,0.117151 -0.479705,0.170022 -0.163151,0.05286 -0.329499,0.102079 -0.498897,0.147709 -0.169399,0.04559 -0.341999,0.08761 -0.517639,0.12628 -0.369866,0.05646 -0.75239,0.10419 -1.138354,0.144576 -0.385969,0.04044 -0.775523,0.07357 -1.159782,0.100409 -0.384251,0.02688 -0.76291,0.04752 -1.127649,0.0634 -0.364738,0.0159 -0.715445,0.02688 -1.042858,0.03438 -0.654832,0.01512 -1.217176,0.0162 -1.615833,0.01338 -0.398644,-0.0024 -0.633664,-0.0094 -0.633664,-0.0094 z m -9.897145,20.921043 c 0.398651,-0.0024 0.961,-0.0018 1.615826,0.01338 0.327414,0.0078 0.678118,0.01849 1.042864,0.03438 0.36474,0.0159 0.743392,0.03653 1.127643,0.06339 0.384263,0.02688 0.773819,0.06001 1.159786,0.100409 0.385963,0.04044 0.768488,0.08808 1.138353,0.144582 0.17564,0.03869 0.348241,0.08066 0.517639,0.126282 0.169401,0.04559 0.335749,0.09484 0.498897,0.147707 0.163136,0.05286 0.322838,0.109608 0.479705,0.170017 0.15686,0.06045 0.310845,0.124547 0.461414,0.192778 0.150574,0.06822 0.297951,0.140556 0.442221,0.216871 0.144279,0.07633 0.285076,0.156713 0.423035,0.241414 0.137948,0.08471 0.273121,0.173485 0.404743,0.26685 0.131625,0.09336 0.259826,0.191316 0.385094,0.293627 0.125284,0.102307 0.247451,0.20931 0.36637,0.320844 0.118926,0.11154 0.23462,0.227466 0.347171,0.348515 0.112551,0.121044 0.221813,0.247128 0.327987,0.377963 0.106159,0.130841 0.209472,0.266508 0.309244,0.407424 0.09977,0.140902 0.196254,0.286931 0.289608,0.438203 0.09334,0.151265 0.183502,0.307979 0.270421,0.469889 0.08693,0.16191 0.170757,0.329189 0.251236,0.502019 0.08049,0.172828 0.157593,0.351011 0.231598,0.535043 0.08316,0.262571 0.158759,0.520258 0.227583,0.772888 0.06882,0.252629 0.130814,0.500183 0.186083,0.742984 0.05526,0.242807 0.10388,0.480894 0.146365,0.71398 0.04247,0.233088 0.07884,0.461052 0.10933,0.684534 0.03049,0.223487 0.05536,0.442426 0.07453,0.656421 0.01929,0.21399 0.0329,0.423246 0.04153,0.627858 0.0086,0.204611 0.01201,0.404398 0.01115,0.599746 -7.32e-4,0.195341 -0.0069,0.386333 -0.01694,0.572525 -0.01011,0.186184 -0.02488,0.367715 -0.04327,0.544858 -0.01837,0.177144 -0.04057,0.349866 -0.0665,0.518081 -0.02591,0.168215 -0.05526,0.33192 -0.08791,0.49131 -0.03264,0.159388 -0.06847,0.314296 -0.107099,0.464986 -0.07728,0.301362 -0.165684,0.585563 -0.262392,0.85276 -0.0967,0.267204 -0.201814,0.517535 -0.31192,0.751463 -0.110116,0.23394 -0.225223,0.451295 -0.342705,0.652853 -0.117485,0.201563 -0.237281,0.387274 -0.356101,0.557351 -0.118815,0.170081 -0.236641,0.324593 -0.350749,0.464092 -0.114116,0.139494 -0.224611,0.264137 -0.327985,0.373943 -0.103364,0.109812 -0.199899,0.205025 -0.286485,0.286044 -0.08657,0.08102 -0.162961,0.147695 -0.226693,0.200807 -0.127489,0.10623 -0.20348,0.157523 -0.20348,0.157523 L 42.57276,44.254176 c 0,0 0.235019,-0.007 0.633665,-0.0094 z m -7.362512,2.684137 10.554456,16.980744 -9.305421,0.0357 c -0.19053,-0.156852 -0.372864,-0.3177 -0.547091,-0.482381 C 36.371617,63.298287 36.205387,63.129687 36.046946,62.957824 35.88851,62.78596 35.737617,62.611 35.594463,62.432597 35.451297,62.2542 35.315877,62.072483 35.187489,61.888189 35.059103,61.703892 34.937944,61.516813 34.823813,61.327261 34.709668,61.137715 34.602467,60.945764 34.50207,60.751616 c -0.100392,-0.194148 -0.193968,-0.390479 -0.281131,-0.588592 -0.08716,-0.198108 -0.167867,-0.397872 -0.242303,-0.599298 -0.07444,-0.201425 -0.142558,-0.404573 -0.20482,-0.608674 -0.06226,-0.204096 -0.118615,-0.409241 -0.169136,-0.615359 -0.05059,-0.206123 -0.09538,-0.413219 -0.134759,-0.620722 -0.03936,-0.207504 -0.07349,-0.415595 -0.102191,-0.623843 -0.02868,-0.208241 -0.05203,-0.416393 -0.07055,-0.624731 -0.01854,-0.208337 -0.03209,-0.41695 -0.04104,-0.624737 -0.0086,-0.207785 -0.0132,-0.415024 -0.01295,-0.62161 1.75e-4,-0.206592 0.0053,-0.412402 0.01381,-0.617153 0.0089,-0.204749 0.02195,-0.408185 0.03888,-0.61045 0.01691,-0.202271 0.03744,-0.40329 0.062,-0.602429 0.04914,-0.398273 0.113232,-0.789484 0.189661,-1.171377 0.07642,-0.381894 0.165437,-0.754348 0.265055,-1.114701 0.09961,-0.36036 0.209712,-0.708756 0.328433,-1.042421 0.118721,-0.333659 0.246029,-0.652691 0.379757,-0.954507 0.133735,-0.301812 0.273923,-0.586613 0.418564,-0.851423 0.144643,-0.264809 0.293454,-0.509632 0.444906,-0.732281 0.151458,-0.222646 0.305453,-0.42307 0.459623,-0.598402 z"
       inkscape:label="final" /></g></svg>
