<svg xmlns="http://www.w3.org/2000/svg" height="48px" viewBox="0 0 24 24" width="48px" fill="#03a9f4">
<path d="M0 0h24v24H0z" fill="none"/>
<path d="M 17.827768,7.629174 H 12 L 10.543058,6.172232 H 6.172232 c -0.8013181,0 -1.4496573,0.6556239 -1.4496573,1.456942 l -0.00728,8.741652 c 0,0.801318 0.6556239,1.456942 1.456942,1.456942 H 17.827773 c 0.801318,0 1.456942,-0.655624 1.456942,-1.456942 v -7.28471 c 0,-0.8013181 -0.655624,-1.456942 -1.456942,-1.456942 z m -3.642355,2.185413 c 0.801318,0 1.456942,0.655624 1.456942,1.456942 0,0.801318 -0.655624,1.456942 -1.456942,1.456942 -0.801318,0 -1.456942,-0.655624 -1.456942,-1.456942 0,-0.801318 0.655624,-1.456942 1.456942,-1.456942 z m 2.913884,5.827768 h -5.827768 v -0.728471 c 0,-0.968866 1.945018,-1.456942 2.913884,-1.456942 0.968866,0 2.913884,0.488076 2.913884,1.456942 z" />
</svg>
